<svg xmlns="http://www.w3.org/2000/svg" width="20" height="20" viewBox="0 0 20 20"><path fill="#fff" d="M19.6,10.2c0-0.7-0.1-1.3-0.2-1.9H10v3.7h5.4c-0.2,1.1-0.9,2.1-1.9,2.7v2.3h3.1C18.3,15.4,19.6,13,19.6,10.2z"/><path fill="#fff" d="M10,20c2.6,0,4.7-0.9,6.3-2.3l-3.1-2.3c-0.8,0.6-1.9,0.9-3.2,0.9c-2.5,0-4.6-1.7-5.4-3.9H1.5v2.4C3.1,17.8,6.3,20,10,20z"/><path fill="#fff" d="M4.6,12.3c-0.2-0.6-0.3-1.2-0.3-1.8c0-0.7,0.1-1.3,0.3-1.8V6.2H1.5C0.8,7.7,0.3,9.3,0.3,11c0,1.7,0.5,3.3,1.2,4.8L4.6,12.3z"/><path fill="#fff" d="M10,4.3c1.4,0,2.6,0.5,3.6,1.4l2.7-2.7C14.6,1.4,12.4,0.3,10,0.3c-3.7,0-6.9,2.2-8.5,5.3l3.1,2.4C5.4,5.9,7.5,4.3,10,4.3z"/></svg>